<svg width="52" height="52" viewBox="0 0 52 52" fill="none" xmlns="http://www.w3.org/2000/svg">
<rect width="52" height="52" rx="26" fill="white"/>
<path d="M10 41.8515V34.7234H10.7729L14.0132 40.7179L17.2363 34.7234H18.0206V41.8465H17.2191V36.347L14.2823 41.8515H13.7384L10.8072 36.347V41.8515H10Z" fill="#316DC2"/>
<path d="M30.8969 42C30.3206 42 29.8016 41.9175 29.3397 41.7525C28.8817 41.5842 28.502 41.3466 28.2005 41.0397C27.9028 40.7328 27.7081 40.3681 27.6165 39.9457L28.4753 39.822C28.6127 40.284 28.9027 40.647 29.3455 40.911C29.7882 41.1717 30.3168 41.302 30.9313 41.302C31.3358 41.302 31.6984 41.2476 32.019 41.1387C32.3396 41.0265 32.5915 40.8681 32.7747 40.6635C32.9579 40.4589 33.0495 40.2163 33.0495 39.9358C33.0495 39.751 33.0113 39.5943 32.935 39.4656C32.8587 39.3336 32.7575 39.2247 32.6316 39.1389C32.5056 39.0531 32.3682 38.9821 32.2194 38.926C32.0705 38.8666 31.9255 38.8188 31.7843 38.7825L29.6947 38.2429C29.4428 38.1802 29.21 38.101 28.9962 38.0053C28.7825 37.9063 28.5955 37.7891 28.4352 37.6538C28.2787 37.5152 28.1566 37.3535 28.0688 37.1687C27.981 36.9839 27.9371 36.7727 27.9371 36.5351C27.9371 36.1325 28.0593 35.7844 28.3035 35.4907C28.5478 35.1969 28.8817 34.9709 29.3054 34.8125C29.729 34.6541 30.2118 34.5765 30.7538 34.5798C31.3034 34.5798 31.7938 34.664 32.2251 34.8323C32.6602 35.0006 33.019 35.2415 33.3014 35.555C33.5838 35.8652 33.7708 36.2332 33.8624 36.6589L32.9808 36.7975C32.9236 36.4873 32.7919 36.2183 32.5858 35.9906C32.3797 35.7629 32.1163 35.588 31.7957 35.4659C31.479 35.3405 31.1297 35.2761 30.7481 35.2728C30.3779 35.2728 30.0477 35.3273 29.7577 35.4362C29.4714 35.5418 29.2443 35.687 29.0764 35.8718C28.9085 36.0566 28.8245 36.2678 28.8245 36.5054C28.8245 36.7463 28.9008 36.9394 29.0535 37.0846C29.21 37.2298 29.4008 37.3436 29.626 37.4261C29.855 37.5086 30.0763 37.5763 30.2901 37.6291L31.9045 38.0399C32.0724 38.0795 32.269 38.1373 32.4942 38.2132C32.7232 38.2858 32.9445 38.3914 33.1583 38.53C33.3758 38.6653 33.5552 38.8435 33.6964 39.0646C33.8376 39.2857 33.9082 39.5662 33.9082 39.9061C33.9082 40.2361 33.8319 40.5315 33.6792 40.7922C33.5304 41.0529 33.3186 41.2723 33.0438 41.4505C32.7728 41.6287 32.4541 41.764 32.0877 41.8565C31.7251 41.9522 31.3282 42 30.8969 42Z" fill="#316DC2"/>
<path fill-rule="evenodd" clip-rule="evenodd" d="M22.5814 34.7234L19.7418 41.8515H20.6177L21.3063 40.1239H24.9684L25.6614 41.8515H26.5373L23.6977 34.7234H22.5814ZM24.6944 39.4408L23.1315 35.5445L21.5785 39.4408H21.007V40.1239H21.3063L21.5785 39.4408H24.6944Z" fill="#316DC2"/>
<path d="M21.007 39.4408V40.1239H21.3063L21.5785 39.4408H21.007Z" fill="#316DC2"/>
<path fill-rule="evenodd" clip-rule="evenodd" d="M38.0441 34.7234L35.2045 41.8515H36.0804L36.769 40.1239H40.4311L41.1241 41.8515H42L39.1604 34.7234H38.0441ZM40.1571 39.4408L38.5942 35.5445L37.0412 39.4408H36.4697V40.1239H36.769L37.0412 39.4408H40.1571Z" fill="#316DC2"/>
<path d="M36.4697 39.4408V40.1239H36.769L37.0412 39.4408H36.4697Z" fill="#316DC2"/>
<path d="M16.6429 16.2582C16.0467 16.6897 15.6973 17.6033 16.356 18.6957C17.0147 19.7881 26.4252 27.1617 26.7701 27.3665C27.1152 27.5714 27.4605 27.6055 28.3385 26.8886C29.2169 26.1716 36.5557 20.5711 36.7451 20.4026C37.0464 20.1346 37.1215 19.4809 36.7451 19.1735C36.7451 19.1735 27.8542 25.9326 27.5631 26.2059C27.2722 26.479 26.8193 26.0352 26.9043 25.455C26.9897 24.8745 27.0526 24.8061 28.1818 23.9187C29.3111 23.031 35.7135 18.1016 36.004 17.8837C36.333 17.6367 36.3409 17.2006 35.8021 16.8149C35.053 16.2787 26.9576 10.43 26.6868 10.2253C26.4153 10.0204 26.0395 9.83421 25.4749 10.2439C24.9104 10.6535 17.7382 15.4655 16.6429 16.2582Z" fill="#316DC2"/>
<path d="M26.7701 28.086C26.5437 27.9514 22.4148 24.731 19.4157 22.2235V27.4516C19.4134 31.2681 29.9978 33.3072 33.5044 28.6156V23.6187C31.3502 25.2721 28.8306 27.2064 28.3385 27.6079C27.4605 28.3248 27.1152 28.2907 26.7701 28.086Z" fill="#316DC2"/>
<path d="M31.2491 22.3533C31.2491 22.3533 32.8229 23.1571 32.9348 26.3915L32.1724 26.178L31.5624 27.4944C31.3043 23.9525 29.899 23.4389 29.899 23.4389L31.2491 22.3533Z" fill="#98B8E6"/>
</svg>
